<?xml version="1.0" encoding="utf-8"?>
<!-- Generator: Adobe Illustrator 22.0.1, SVG Export Plug-In . SVG Version: 6.00 Build 0)  -->
<svg version="1.1" id="Layer_1" xmlns="http://www.w3.org/2000/svg" xmlns:xlink="http://www.w3.org/1999/xlink" x="0px" y="0px"
	 viewBox="0 0 16 16" style="enable-background:new 0 0 16 16;" xml:space="preserve">
<style type="text/css">
	.st0{filter:url(#Adobe_OpacityMaskFilter);}
	.st1{fill:#FFFFFF;}
	.st2{mask:url(#mask-2_1_);}
	.st3{fill:#A8AAB7;}
</style>
<title>Icon/Arrow (Dropdown)</title>
<desc>Created with Sketch.</desc>
<g id="Symbols">
	<g id="Icon_x2F_Arrow-_x28_Dropdown_x29_">
		<g id="Dropdown-Arrow" transform="translate(12.500000, 6.500000) rotate(-45.000000) translate(-12.500000, -6.500000) ">
		</g>
		<defs>
			<filter id="Adobe_OpacityMaskFilter" filterUnits="userSpaceOnUse" x="-5.4" y="-0.2" width="22.6" height="22.6">
				<feColorMatrix  type="matrix" values="1 0 0 0 0  0 1 0 0 0  0 0 1 0 0  0 0 0 1 0"/>
			</filter>
		</defs>
		<mask maskUnits="userSpaceOnUse" x="-5.4" y="-0.2" width="22.6" height="22.6" id="mask-2_1_">
			<g class="st0">
				<path id="path-1_1_" class="st1" d="M8,9l2.5-2.5c0.2-0.2,0.5-0.2,0.7,0c0.2,0.2,0.2,0.5,0,0.7L8.4,10c-0.2,0.2-0.5,0.2-0.7,0
					L4.8,7.2C4.6,7,4.7,6.7,4.8,6.5c0.2-0.2,0.5-0.2,0.7,0L8,9z"/>
			</g>
		</mask>
		<g id="UI_x2F_Color_x2F_Flat_x2F_Grey-50_x25_" class="st2">
			
				<rect id="Base" x="-2.1" y="3.1" transform="matrix(0.7071 -0.7071 0.7071 0.7071 -6.1244 7.43)" class="st3" width="16" height="16"/>
		</g>
	</g>
</g>
</svg>
