<?xml version="1.0" encoding="UTF-8"?>
<svg width="20px" height="22px" viewBox="0 0 20 22" version="1.1" xmlns="http://www.w3.org/2000/svg" xmlns:xlink="http://www.w3.org/1999/xlink">
    <!-- Generator: Sketch 49 (51002) - http://www.bohemiancoding.com/sketch -->
    <title>Icons / Edit</title>
    <desc>Created with Sketch.</desc>
    <defs></defs>
    <g id="Icons-/-Edit" stroke="none" stroke-width="1" fill="none" fill-rule="evenodd">
        <g id="if_edit-3_2561260" fill="#1066A3" fill-rule="nonzero">
            <path d="M12,2.41421356 L2,12.4142136 L2,15 L4.58578644,15 L14.5857864,5 L12,2.41421356 Z M12.7071068,0.292893219 L16.7071068,4.29289322 C17.0976311,4.68341751 17.0976311,5.31658249 16.7071068,5.70710678 L5.70710678,16.7071068 C5.5195704,16.8946432 5.26521649,17 5,17 L1,17 C0.44771525,17 0,16.5522847 0,16 L0,12 C0,11.7347835 0.10535684,11.4804296 0.292893219,11.2928932 L11.2928932,0.292893219 C11.6834175,-0.0976310729 12.3165825,-0.0976310729 12.7071068,0.292893219 Z" id="Shape"></path>
            <path d="M1,22 C0.44771525,22 0,21.5522847 0,21 C0,20.4477153 0.44771525,20 1,20 L19,20 C19.5522847,20 20,20.4477153 20,21 C20,21.5522847 19.5522847,22 19,22 L1,22 Z" id="Shape"></path>
        </g>
    </g>
</svg>