<?xml version="1.0" encoding="UTF-8"?>
<svg width="30px" height="22px" viewBox="0 0 30 22" version="1.1" xmlns="http://www.w3.org/2000/svg" xmlns:xlink="http://www.w3.org/1999/xlink">
    <!-- Generator: Sketch 47.1 (45422) - http://www.bohemiancoding.com/sketch -->
    <title>email symbol</title>
    <desc>Created with Sketch.</desc>
    <defs></defs>
    <g id="Symbols" stroke="none" stroke-width="1" fill="none" fill-rule="evenodd">
        <g id="email-symbol" fill="#1066A3">
            <g>
                <path d="M13.4079762,13.0586192 C13.8332721,13.4839151 14.4010873,13.718054 15.0079257,13.718054 C15.6141985,13.718054 16.1820137,13.4839151 16.6073096,13.0586192 L28.9284477,0.448483544 C28.8294759,0 28.6185246,0 28.2237686,0 L1.79151718,0 C1.39676118,0 0.917172218,0 1.01218512,0.45527018 L13.4079762,13.0586192 Z" id="Fill-1"></path>
                <g id="Group-5" transform="translate(0.000000, 1.581500)">
                    <path d="M17.3445543,12.4362311 C16.691538,13.0898259 15.8198855,13.4495922 14.8909711,13.4495922 C13.9614784,13.4495922 13.0898259,13.0898259 12.4368095,12.4362311 L0,0 L0,18.6257158 C0,19.3816878 0.618312222,20 1.37428423,20 L28.4070796,20 C29.1630517,20 29.7813639,19.3816878 29.7813639,18.6257158 L29.7813639,0 L17.3445543,12.4362311 Z" id="Fill-3"></path>
                </g>
            </g>
        </g>
    </g>
</svg>