<?xml version="1.0" encoding="utf-8"?>
<svg width="153px" height="39px" viewBox="0 0 153 39" version="1.1" xmlns:xlink="http://www.w3.org/1999/xlink" xmlns="http://www.w3.org/2000/svg">
  <desc>Created with Lunacy</desc>
  <g id="Impact_logo_Red-Black">
    <g id="Impact_logo_Red-Black">
      <path d="M0 0L6.93929 0L6.93929 20.0529L0 20.0529L0 0Z" transform="translate(28.74919 11.15913)" id="Rectangle" fill="#000000" stroke="none" />
      <path d="M0 0.459L6.32235 0.459L6.32235 4.15568L6.39639 4.15568C7.78326 1.26842 10.557 1.75344e-15 13.7206 1.75344e-15C16.5734 1.75344e-15 18.9226 1.23387 20.0035 3.84968C21.6224 1.1549 24.2826 0 27.1353 0C32.9147 0 34.2276 3.27223 34.2276 8.70126L34.2276 20.5168L27.2883 20.5168L27.2883 9.73771C27.2883 7.46739 26.4789 5.77452 24.5145 5.77452C22.0468 5.77452 20.581 7.73884 20.581 12.0475L20.581 20.5168L13.6417 20.5168L13.6417 9.73771C13.6417 7.46739 12.8323 5.77452 10.8679 5.77452C8.40019 5.77452 6.93435 7.73884 6.93435 12.0475L6.93435 20.5168L0 20.5168L0 0.459Z" transform="translate(38.7781 10.70013)" id="Path" fill="#000000" stroke="none" />
      <path d="M0 26.9774L6.93929 26.9774L6.93929 17.7036L7.01826 17.7036C8.3311 20.0874 10.9469 20.9758 13.3801 20.9758C19.352 20.9758 22.5552 16.0502 22.5552 10.1227C22.5552 5.2711 19.51 0 13.9625 0C10.7988 0 7.8721 1.26842 6.48523 4.08165L6.41119 4.08165L6.41119 0.463935L0.00987097 0.463935L0.00987097 26.9774L0 26.9774ZM15.3839 10.2757C15.3839 13.4689 13.8045 15.6652 11.1838 15.6652C8.86906 15.6652 6.94423 13.4739 6.94423 10.5471C6.94423 7.54635 8.64203 5.31058 11.1838 5.31058C13.8786 5.31058 15.3839 7.62039 15.3839 10.2757L15.3839 10.2757Z" transform="translate(75.43394 10.70013)" id="Shape" fill="#000000" stroke="none" />
      <path d="M20.0825 8.31135C20.0825 2.19135 15.6504 0 10.5225 0C7.55623 0 4.97497 0.424452 2.50723 1.42636L2.62568 6.12C4.55052 5.04406 6.78629 4.61961 9.02206 4.61961C11.5244 4.61961 13.5676 5.35006 13.6071 8.08432C12.7187 7.93132 11.4849 7.81287 10.3695 7.81287C6.66784 7.81287 0 8.54332 0 14.6633C0 19.0115 3.54368 20.9758 7.51674 20.9758C10.3695 20.9758 12.2943 19.8604 13.8736 17.3581L13.9526 17.3581L13.9575 20.5168L20.122 20.5168L20.0825 8.31135ZM6.48029 14.1648C6.48029 12.24 8.3311 11.5095 10.6804 11.5095C11.7218 11.5095 12.7237 11.5885 13.6121 11.628C13.6121 13.9773 11.9537 16.3611 9.333 16.3611C7.70923 16.3562 6.48029 15.5468 6.48029 14.1648L6.48029 14.1648Z" transform="translate(98.82813 10.70013)" id="Shape" fill="#000000" stroke="none" />
      <path d="M11.6774 0C5.049 0 0 3.84968 0 10.5076C0 17.1261 5.049 20.9758 11.6774 20.9758C13.5282 20.9758 15.5468 20.7488 18.3649 19.6876L17.1903 14.9348C16.0304 15.5517 14.4511 15.8972 12.8717 15.8972C9.86603 15.8972 7.16632 13.8194 7.16632 10.6261C7.16632 7.16139 9.48106 5.08355 12.4868 5.08355C14.1352 5.08355 15.226 5.16745 16.6671 5.79919L16.6671 0.888387C15.2062 0.276387 13.538 0 11.6774 0" transform="translate(120.2531 10.70013)" id="Path" fill="#000000" stroke="none" />
      <path d="M13.617 22.3528C13.1086 22.4416 12.6003 22.5157 12.1018 22.5157C9.90551 22.5157 9.32806 21.2867 9.32806 18.8585L9.32806 11.9636L13.617 11.9636L13.617 7.11203L9.32806 7.11203L9.32806 0L2.50723 2.11732L2.50723 7.11203L0 7.11203L0 11.9636L2.39371 11.9636L2.39371 19.6284C2.39371 24.401 3.89903 27.1353 10.1029 27.1353C11.4701 27.1353 12.5707 26.9922 13.6219 26.854L13.6219 22.3528L13.617 22.3528Z" transform="translate(139.0178 4.540645)" id="Path" fill="#000000" stroke="none" />
      <path d="M19.663 7.68455C19.663 9.83148 17.9207 11.5737 15.7689 11.5737C13.617 11.5737 11.8748 9.83148 11.8748 7.68455C11.8748 5.53761 13.617 3.79539 15.7689 3.79539C17.9207 3.79045 19.663 5.53268 19.663 7.68455L19.663 7.68455ZM25.3486 0L0 0L0 25.3486L25.3486 25.3486L25.3486 0Z" transform="translate(0.3652258 5.863355)" id="Shape" fill="#E4002B" stroke="none" />
      <path d="M7.78819 3.88916C7.78819 6.0361 6.04597 7.77832 3.8941 7.77832C1.74223 7.77832 0 6.0361 0 3.88916C0 1.74223 1.74223 0 3.8941 0C6.04597 0 7.78819 1.73729 7.78819 3.88916" transform="translate(28.30006 0.04441936)" id="Path" fill="#E4002B" stroke="none" />
    </g>
  </g>
</svg>