<?xml version="1.0" encoding="UTF-8"?>
<svg width="500px" height="62px" viewBox="0 0 500 62" version="1.1" xmlns="http://www.w3.org/2000/svg" xmlns:xlink="http://www.w3.org/1999/xlink">
    <!-- Generator: Sketch 48.2 (47327) - http://www.bohemiancoding.com/sketch -->
    <title>myadmin_logo_FINAL</title>
    <desc>Created with Sketch.</desc>
    <defs>
        <polygon id="path-1" points="0.06 0.52 20.319 0.52 20.319 47.56 0.06 47.56"></polygon>
    </defs>
    <g id="Logo" stroke="none" stroke-width="1" fill="none" fill-rule="evenodd">
        <g id="myadmin_logo_FINAL">
            <g id="Group-3" transform="translate(0.000000, 3.000000)">
                <mask id="mask-2" fill="white">
                    <use xlink:href="#path-1"></use>
                </mask>
                <g id="Clip-2"></g>
                <polyline id="Fill-1" fill="#1A1919" mask="url(#mask-2)" points="20.319 47.56 0 47.56 0 0.52 20.319 0.52 20.319 4.696 4.178 4.696 4.178 43.382 20.319 43.382 20.319 47.56"></polyline>
            </g>
            <polygon id="Fill-4" fill="#1066A3" points="26.895 18.413 31.073 18.413 31.073 14.236 26.895 14.236"></polygon>
            <polygon id="Fill-5" fill="#1066A3" points="26.895 7.696 31.073 7.696 31.073 3.52 26.895 3.52"></polygon>
            <polygon id="Fill-6" fill="#1066A3" points="26.895 29.129 31.073 29.129 31.073 24.951 26.895 24.951"></polygon>
            <polygon id="Fill-7" fill="#1066A3" points="26.895 39.844 31.073 39.844 31.073 35.666 26.895 35.666"></polygon>
            <polygon id="Fill-8" fill="#1066A3" points="26.895 50.56 31.073 50.56 31.073 46.382 26.895 46.382"></polygon>
            <polygon id="Fill-9" fill="#1066A3" points="37.632 18.413 41.81 18.413 41.81 14.236 37.632 14.236"></polygon>
            <polygon id="Fill-10" fill="#1066A3" points="37.632 7.696 41.81 7.696 41.81 3.52 37.632 3.52"></polygon>
            <polygon id="Fill-11" fill="#1066A3" points="37.632 29.129 41.81 29.129 41.81 24.951 37.632 24.951"></polygon>
            <polygon id="Fill-12" fill="#1066A3" points="37.632 39.844 41.81 39.844 41.81 35.666 37.632 35.666"></polygon>
            <polygon id="Fill-13" fill="#1066A3" points="37.632 50.56 41.81 50.56 41.81 46.382 37.632 46.382"></polygon>
            <polygon id="Fill-14" fill="#1066A3" points="32.249 23.766 36.427 23.766 36.427 19.589 32.249 19.589"></polygon>
            <polygon id="Fill-15" fill="#1066A3" points="32.249 13.05 36.427 13.05 36.427 8.872 32.249 8.872"></polygon>
            <polygon id="Fill-16" fill="#1066A3" points="32.249 34.481 36.427 34.481 36.427 30.304 32.249 30.304"></polygon>
            <polygon id="Fill-17" fill="#1066A3" points="32.249 45.197 36.427 45.197 36.427 41.019 32.249 41.019"></polygon>
            <polygon id="Fill-18" fill="#1066A3" points="21.526 23.766 25.705 23.766 25.705 19.589 21.526 19.589"></polygon>
            <polygon id="Fill-19" fill="#1066A3" points="21.526 13.05 25.705 13.05 25.705 8.872 21.526 8.872"></polygon>
            <polygon id="Fill-20" fill="#1066A3" points="21.526 34.481 25.705 34.481 25.705 30.304 21.526 30.304"></polygon>
            <polygon id="Fill-21" fill="#1066A3" points="21.526 45.197 25.705 45.197 25.705 41.019 21.526 41.019"></polygon>
            <polygon id="Fill-22" fill="#1A1919" points="9.227 39.844 20.34 39.844 20.34 35.666 9.227 35.666"></polygon>
            <polygon id="Fill-23" fill="#1A1919" points="9.227 18.413 20.34 18.413 20.34 14.236 9.227 14.236"></polygon>
            <polygon id="Fill-24" fill="#1A1919" points="9.227 29.129 20.34 29.129 20.34 24.951 9.227 24.951"></polygon>
            <polyline id="Fill-25" fill="#1A1919" points="48.448 50.56 48.448 46.382 55.22 46.382 55.22 7.668 48.448 7.668 48.448 3.482 65.214 3.482 77.378 43.722 89.936 3.482 106.505 3.482 106.505 7.668 99.799 7.668 99.799 46.382 106.505 46.382 106.505 50.56 88.227 50.56 88.227 46.382 94.276 46.382 94.276 7.822 93.816 7.822 79.811 50.56 74.683 50.56 60.678 7.822 60.217 7.822 60.217 46.382 66.332 46.382 66.332 50.56 48.448 50.56"></polyline>
            <path d="M117.486,16.389 L117.486,20.117 L112.16,20.117 L120.576,44.182 L128.729,20.117 L123.337,20.117 L123.337,16.389 L137.408,16.389 L137.408,20.117 L134.383,20.117 L123.074,50.888 C122.417,52.598 121.759,54.242 120.97,55.951 C120.181,57.727 119.195,59.502 117.42,60.554 C115.973,61.475 113.935,62 112.16,62 C110.779,62 109.398,61.737 108.018,61.54 L108.018,57.2 C109.333,57.529 110.582,57.661 111.962,57.661 C115.513,57.661 116.762,53.321 117.617,50.626 L106.111,20.117 L102.823,20.117 L102.823,16.389 L117.486,16.389" id="Fill-26" fill="#1A1919"></path>
            <path d="M144.229,32.981 L155.877,32.981 L150.164,14.464 L149.974,14.464 L144.229,32.981 Z M158.162,40.394 L141.944,40.394 L138.802,50.56 L129.439,50.56 L145.34,3.424 L154.83,3.424 L170.667,50.56 L161.304,50.56 L158.162,40.394 Z" id="Fill-27" fill="#1066A3"></path>
            <path d="M177.915,34.022 C177.915,37.106 178.422,39.532 179.438,41.301 C180.454,43.071 182.104,43.956 184.389,43.956 C185.722,43.956 186.885,43.679 187.88,43.125 C188.875,42.571 189.689,41.763 190.324,40.699 L190.324,25.685 C189.689,24.579 188.88,23.716 187.896,23.097 C186.913,22.478 185.764,22.168 184.453,22.168 C182.188,22.168 180.533,23.2 179.486,25.263 C178.438,27.325 177.915,30.018 177.915,33.339 L177.915,34.022 Z M168.679,33.337 C168.679,27.812 169.848,23.355 172.186,19.967 C174.523,16.579 177.819,14.884 182.072,14.884 C183.787,14.884 185.331,15.262 186.707,16.018 C188.082,16.773 189.288,17.852 190.324,19.255 L190.324,0.058 L199.624,0.058 L199.624,50.56 L191.658,50.56 L190.896,46.286 C189.816,47.905 188.542,49.135 187.071,49.977 C185.6,50.818 183.914,51.239 182.009,51.239 C177.798,51.239 174.523,49.664 172.186,46.513 C169.848,43.362 168.679,39.197 168.679,34.017 L168.679,33.337 Z" id="Fill-28" fill="#1066A3"></path>
            <path d="M212.148,15.532 L212.529,20.161 C213.628,18.478 215.009,17.178 216.67,16.26 C218.331,15.343 220.251,14.884 222.431,14.884 C224.631,14.884 226.514,15.381 228.08,16.374 C229.646,17.367 230.831,18.866 231.634,20.874 C232.693,18.996 234.068,17.528 235.762,16.471 C237.453,15.414 239.443,14.884 241.729,14.884 C245.113,14.884 247.783,16.077 249.742,18.462 C251.699,20.847 252.678,24.478 252.678,29.355 L252.678,50.56 L243.41,50.56 L243.41,29.274 C243.41,26.614 242.986,24.764 242.141,23.726 C241.293,22.688 240.035,22.168 238.363,22.168 C237.051,22.168 235.914,22.466 234.951,23.061 C233.988,23.656 233.223,24.483 232.65,25.543 C232.65,25.954 232.66,26.306 232.682,26.598 C232.703,26.89 232.715,27.187 232.715,27.49 L232.715,50.56 L223.478,50.56 L223.478,29.274 C223.478,26.678 223.054,24.845 222.208,23.774 C221.362,22.704 220.092,22.168 218.4,22.168 C217.151,22.168 216.056,22.412 215.115,22.899 C214.173,23.385 213.396,24.072 212.783,24.959 L212.783,50.56 L203.546,50.56 L203.546,15.532 L212.148,15.532" id="Fill-29" fill="#1066A3"></path>
            <path d="M256.623,50.56 L265.891,50.56 L265.891,15.532 L256.623,15.532 L256.623,50.56 Z M256.623,7.148 L265.891,7.148 L265.891,0.058 L256.623,0.058 L256.623,7.148 Z" id="Fill-30" fill="#1066A3"></path>
            <path d="M279.643,15.532 L280.055,20.55 C281.197,18.759 282.604,17.367 284.275,16.374 C285.947,15.381 287.818,14.884 289.893,14.884 C293.363,14.884 296.07,15.996 298.018,18.219 C299.965,20.442 300.938,23.928 300.938,28.675 L300.938,50.56 L291.639,50.56 L291.639,28.658 C291.639,26.3 291.174,24.629 290.242,23.645 C289.311,22.661 287.904,22.168 286.021,22.168 C284.793,22.168 283.693,22.423 282.721,22.931 C281.746,23.439 280.932,24.159 280.277,25.088 L280.277,50.56 L271.01,50.56 L271.01,15.532 L279.643,15.532" id="Fill-31" fill="#1066A3"></path>
            <path d="M337.369,20.183 C336.908,12.556 332.701,7.362 324.744,7.362 C313.305,7.362 309.359,16.37 309.359,26.495 C309.359,36.489 312.58,46.615 324.35,46.615 C331.715,46.615 336.25,41.88 336.645,34.714 L342.695,34.714 C342.301,45.497 334.738,51.349 324.285,51.349 C317.842,51.349 312.121,49.376 307.979,44.182 C304.428,39.711 302.98,32.61 302.98,27.021 C302.98,20.314 304.756,14.331 307.848,10.32 C311.594,5.455 316.855,2.759 324.088,2.759 C329.873,2.759 335.264,4.732 337.764,10.32 L337.764,3.482 L342.498,3.482 L342.498,20.183 L337.369,20.183" id="Fill-32" fill="#1A1919"></path>
            <path d="M369.65,30.506 C369.586,25.048 366.496,19.131 360.248,19.131 C353.871,19.131 350.65,24.917 350.256,30.506 L369.65,30.506 Z M375.307,34.451 L349.992,34.451 C350.189,37.804 350.781,41.026 353.016,43.656 C355.318,46.417 357.553,47.009 361.17,47.009 C365.313,47.009 369.322,43.919 369.783,39.842 L374.846,39.842 C373.596,47.272 367.68,51.02 360.248,51.02 C349.072,51.02 344.469,43.59 344.469,33.333 C344.469,29.651 345.191,25.772 347.033,22.55 C349.664,17.882 354.988,15.186 360.381,15.186 C363.537,15.186 367.285,16.238 369.717,18.21 C372.412,20.446 373.926,23.405 374.582,26.692 C375.109,29.191 375.307,30.966 375.307,33.53 L375.307,34.451 Z" id="Fill-33" fill="#1A1919"></path>
            <path d="M385.893,22.418 C387.668,17.421 390.824,15.186 396.281,15.186 C401.475,15.186 405.025,17.421 406.67,22.418 C406.932,23.931 406.932,25.312 406.932,26.824 L406.932,46.417 L412.324,46.417 L412.324,50.56 L396.215,50.56 L396.215,46.417 L401.607,46.417 L401.607,28.665 C401.607,23.997 400.555,19.328 394.834,19.328 C392.797,19.328 391.875,19.394 390.166,20.512 C388.719,21.432 387.996,22.484 387.273,23.865 C385.893,26.56 385.893,29.717 385.893,32.676 L385.893,46.417 L391.283,46.417 L391.283,50.56 L374.846,50.56 L374.846,46.417 L380.566,46.417 L380.566,20.117 L374.979,20.117 L374.979,16.238 L385.893,16.238 L385.893,22.418" id="Fill-34" fill="#1A1919"></path>
            <path d="M418.832,16.238 L428.695,16.238 L428.695,20.117 L418.832,20.117 L418.832,42.341 C418.832,44.576 419.49,47.075 422.252,47.075 C425.672,47.075 425.672,42.407 425.672,40.04 L429.945,40.04 C429.945,40.894 429.945,41.683 429.879,42.538 C429.748,45.76 428.564,49.047 425.342,50.428 C424.158,50.691 423.041,51.02 421.791,51.02 C420.543,51.02 419.754,50.823 418.57,50.626 C416.4,50.231 414.889,48.39 414.1,46.417 C413.508,44.971 413.508,41.815 413.508,40.237 L413.508,20.117 L407.59,20.117 L407.59,16.238 L413.508,16.238 L413.508,9.531 L418.832,7.559 L418.832,16.238" id="Fill-35" fill="#1A1919"></path>
            <path d="M441.189,23.076 C443.293,17.29 445.266,15.646 451.578,15.646 L452.959,15.646 L452.959,20.578 C452.234,20.446 451.445,20.314 450.723,20.314 C442.898,20.314 441.189,26.758 441.189,33.333 L441.189,46.417 L447.697,46.417 L447.697,50.56 L430.406,50.56 L430.406,46.417 L435.863,46.417 L435.863,20.117 L430.406,20.117 L430.406,16.238 L441.189,16.238 L441.189,23.076" id="Fill-36" fill="#1A1919"></path>
            <path d="M463.938,47.141 C471.828,47.141 474.326,40.631 474.523,33.925 C472.879,33.662 470.908,33.662 469.264,33.662 C464.068,33.662 457.955,33.859 457.955,40.697 C457.955,44.445 460.059,47.141 463.938,47.141 Z M474.523,43.787 C472.223,48.916 468.869,51.02 463.281,51.02 C458.414,51.02 453.879,48.916 452.629,43.787 C452.234,42.143 452.301,41.092 452.301,40.565 C452.301,32.872 458.547,29.914 465.385,29.914 C466.633,29.914 467.883,29.848 469.133,29.848 L474.523,29.848 L474.523,26.692 C474.326,24.26 474.063,22.813 472.223,20.972 C470.973,19.723 468.869,19.131 467.16,19.131 C464.266,19.131 462.295,19.46 460.322,21.893 C459.4,23.01 459.139,24.588 459.006,25.969 L453.484,25.969 C453.746,21.038 456.18,17.487 460.914,15.909 C462.82,15.252 464.727,15.186 466.766,15.186 C470.381,15.186 473.273,15.844 476.168,18.145 C478.93,20.314 479.455,23.339 479.455,26.692 L479.455,46.417 L484.912,46.417 L484.912,50.56 L474.523,50.56 L474.523,43.787 Z" id="Fill-37" fill="#1A1919"></path>
            <polyline id="Fill-38" fill="#1A1919" points="483.006 50.56 483.006 46.417 488.463 46.417 488.463 7.362 483.006 7.362 483.006 3.482 493.789 3.482 493.789 46.417 499.049 46.417 499.049 50.56 483.006 50.56"></polyline>
        </g>
    </g>
</svg>