<?xml version="1.0" encoding="UTF-8"?>
<svg width="19px" height="19px" viewBox="0 0 19 19" version="1.1" xmlns="http://www.w3.org/2000/svg" xmlns:xlink="http://www.w3.org/1999/xlink">
    <!-- Generator: Sketch 48.2 (47327) - http://www.bohemiancoding.com/sketch -->
    <title>phone</title>
    <desc>Created with Sketch.</desc>
    <defs></defs>
    <g id="Header" stroke="none" stroke-width="1" fill="none" fill-rule="evenodd" transform="translate(-1177.000000, -57.000000)">
        <path d="M1195.85714,72.0357143 C1195.85714,72.2767869 1195.8125,72.5915159 1195.72321,72.9799107 C1195.63393,73.3683055 1195.54018,73.674106 1195.44196,73.8973214 C1195.25446,74.3437522 1194.70983,74.8169618 1193.80804,75.3169643 C1192.96875,75.7723237 1192.1384,76 1191.31696,76 C1191.07589,76 1190.84152,75.9843752 1190.61384,75.953125 C1190.38616,75.9218748 1190.12947,75.8660718 1189.84375,75.7857143 C1189.55803,75.7053567 1189.34598,75.6406252 1189.20759,75.5915179 C1189.0692,75.5424105 1188.82143,75.4508935 1188.46429,75.3169643 C1188.10714,75.183035 1187.88839,75.1026787 1187.80804,75.0758929 C1186.93303,74.7633913 1186.15179,74.3928593 1185.46429,73.9642857 C1184.32142,73.258925 1183.14063,72.2968811 1181.92188,71.078125 C1180.70312,69.8593689 1179.74107,68.6785771 1179.03571,67.5357143 C1178.60714,66.8482108 1178.23661,66.0669687 1177.92411,65.1919643 C1177.89732,65.1116067 1177.81696,64.8928589 1177.68304,64.5357143 C1177.54911,64.1785696 1177.45759,63.9308043 1177.40848,63.7924107 C1177.35937,63.6540172 1177.29464,63.4419657 1177.21429,63.15625 C1177.13393,62.8705343 1177.07813,62.6138404 1177.04688,62.3861607 C1177.01562,62.158481 1177,61.9241083 1177,61.6830357 C1177,60.861603 1177.22768,60.0312542 1177.68304,59.1919643 C1178.18304,58.2901741 1178.65625,57.7455367 1179.10268,57.5580357 C1179.32589,57.4598209 1179.63169,57.3660719 1180.02009,57.2767857 C1180.40848,57.1874996 1180.72321,57.1428571 1180.96429,57.1428571 C1181.08929,57.1428571 1181.18304,57.1562499 1181.24554,57.1830357 C1181.40625,57.2366074 1181.64286,57.5758897 1181.95536,58.2008929 C1182.05357,58.3705366 1182.1875,58.6116056 1182.35714,58.9241071 C1182.52679,59.2366087 1182.68304,59.520088 1182.82589,59.7745536 C1182.96875,60.0290191 1183.10714,60.267856 1183.24107,60.4910714 C1183.26786,60.5267859 1183.34598,60.6383919 1183.47545,60.8258929 C1183.60491,61.0133938 1183.70089,61.1718744 1183.76339,61.3013393 C1183.82589,61.4308042 1183.85714,61.5580351 1183.85714,61.6830357 C1183.85714,61.861608 1183.72991,62.0848201 1183.47545,62.3526786 C1183.22098,62.6205371 1182.9442,62.8660703 1182.64509,63.0892857 C1182.34598,63.3125011 1182.0692,63.5491059 1181.81473,63.7991071 C1181.56027,64.0491084 1181.43304,64.2544635 1181.43304,64.4151786 C1181.43304,64.4955361 1181.45536,64.5959815 1181.5,64.7165179 C1181.54464,64.8370542 1181.58259,64.9285711 1181.61384,64.9910714 C1181.64509,65.0535717 1181.70759,65.1607135 1181.80134,65.3125 C1181.89509,65.4642865 1181.94643,65.5491071 1181.95536,65.5669643 C1182.63393,66.7901847 1183.41071,67.8392813 1184.28571,68.7142857 C1185.16072,69.5892901 1186.20982,70.366068 1187.43304,71.0446429 C1187.45089,71.0535715 1187.53571,71.1049102 1187.6875,71.1986607 C1187.83929,71.2924112 1187.94643,71.3549106 1188.00893,71.3861607 C1188.07143,71.4174109 1188.16295,71.4553569 1188.28348,71.5 C1188.40402,71.5446431 1188.50446,71.5669643 1188.58482,71.5669643 C1188.74554,71.5669643 1188.95089,71.4397334 1189.20089,71.1852679 C1189.45089,70.9308023 1189.6875,70.6540194 1189.91071,70.3549107 C1190.13393,70.0558021 1190.37946,69.7790191 1190.64732,69.5245536 C1190.91518,69.270088 1191.13839,69.1428571 1191.31696,69.1428571 C1191.44196,69.1428571 1191.5692,69.1741068 1191.69866,69.2366071 C1191.82813,69.2991075 1191.98661,69.3950886 1192.17411,69.5245536 C1192.36161,69.6540185 1192.47321,69.7321427 1192.50893,69.7589286 C1192.73214,69.8928578 1192.97098,70.0312493 1193.22545,70.1741071 C1193.47991,70.316965 1193.76339,70.4732134 1194.07589,70.6428571 C1194.38839,70.8125008 1194.62946,70.9464281 1194.79911,71.0446429 C1195.42411,71.3571444 1195.76339,71.5937492 1195.81696,71.7544643 C1195.84375,71.8169646 1195.85714,71.9107137 1195.85714,72.0357143 Z" id="phone" fill="#1066A3"></path>
    </g>
</svg>